<svg width="14" height="21" viewBox="0 0 14 21" fill="none" xmlns="http://www.w3.org/2000/svg">
  <mask id="mask0_606_52" style="mask-type:luminance" maskUnits="userSpaceOnUse" x="0" y="0" width="14" height="21">
    <path d="M7 18.5C7 18.5 1 11.5 1 7C1 3.68629 3.68629 1 7 1C10.3137 1 13 3.68629 13 7C13 11.5 7 18.5 7 18.5Z" fill="white" stroke="white" stroke-width="2" stroke-linecap="round"/>
  </mask>
  <g mask="url(#mask0_606_52)">
    <path d="M19 -2H-5V22H19V-2Z" fill="#FF9A62"/>
  </g>
  <path d="M7 18.5C7 18.5 1 11.5 1 7C1 3.68629 3.68629 1 7 1C10.3137 1 13 3.68629 13 7C13 11.5 7 18.5 7 18.5Z" fill="none" stroke="black" stroke-width="1.5" stroke-linecap="round"/>
  <circle cx="7" cy="7" r="2.5" fill="none" stroke="black" stroke-width="1"/>
</svg>
